<svg width="608" height="386" fill="none" xmlns="http://www.w3.org/2000/svg"><path d="M506.196 160.961h-.141l-80.843 34.657-110.609 47.419a3.56 3.56 0 0 1-2.733.014l-114.117-47.532-82.829-34.502-.126-.056h-.141a4.922 4.922 0 0 0-3.484 1.451 4.964 4.964 0 0 0-1.445 3.498v214.929a4.964 4.964 0 0 0 1.445 3.498 4.93 4.93 0 0 0 3.484 1.451h391.539a4.93 4.93 0 0 0 3.484-1.451 4.969 4.969 0 0 0 1.446-3.498V165.91a4.969 4.969 0 0 0-1.446-3.498 4.922 4.922 0 0 0-3.484-1.451Z" fill="#fff"/><path d="M506.035 163.155a.697.697 0 0 1-.401-.127L311.192 27.011a3.516 3.516 0 0 0-4.028.007L114.123 163.027a.704.704 0 0 1-1.095-.701.708.708 0 0 1 .287-.456L306.357 25.862a4.921 4.921 0 0 1 5.638-.01L506.438 161.87a.707.707 0 0 1 .268.791.704.704 0 0 1-.671.495Z" fill="#F7F7F7"/><path d="M125.082 167.252 309.726 30.453l186.046 146.533L319.24 281.601l-95.842-21.838-98.316-92.511Z" fill="#E6E6E6"/><path d="M231.58 346.305h-91.261a4.205 4.205 0 0 1-3.017-1.28 4.453 4.453 0 0 1-1.253-3.1 4.452 4.452 0 0 1 1.244-3.104 4.206 4.206 0 0 1 3.013-1.29h91.274a4.206 4.206 0 0 1 3.017 1.281 4.45 4.45 0 0 1 1.253 3.1 4.454 4.454 0 0 1-1.244 3.104 4.21 4.21 0 0 1-3.013 1.289h-.013Zm-59.153-17.547h-32.184a4.097 4.097 0 0 1-2.963-1.281 4.488 4.488 0 0 1-1.231-3.099 4.493 4.493 0 0 1 1.222-3.103 4.101 4.101 0 0 1 2.96-1.291h32.196a4.022 4.022 0 0 1 1.605.331c.51.219.972.542 1.362.949.39.406.7.89.912 1.422a4.577 4.577 0 0 1 .004 3.359 4.412 4.412 0 0 1-.907 1.425 4.204 4.204 0 0 1-1.359.953 4.025 4.025 0 0 1-1.604.335h-.013Z" fill="#982622"/><path d="M312.159 243.214a5.356 5.356 0 0 1-2.02-.395l-113.771-47.043V48.523a4.91 4.91 0 0 1 1.445-3.472 4.944 4.944 0 0 1 3.484-1.44h218.26a4.944 4.944 0 0 1 3.483 1.44 4.906 4.906 0 0 1 1.445 3.472v147.356l-.214.091-110.031 46.826a5.389 5.389 0 0 1-2.081.418Z" fill="#fff"/><path d="M312.71 244.311a5.683 5.683 0 0 1-2.158-.423l-114.184-47.485V47.817a5.318 5.318 0 0 1 1.551-3.747 5.29 5.29 0 0 1 3.739-1.554h218.634a5.29 5.29 0 0 1 3.739 1.554 5.314 5.314 0 0 1 1.551 3.747v148.687l-110.649 47.359a5.696 5.696 0 0 1-2.223.448Zm-114.931-48.852 113.311 47.122a4.306 4.306 0 0 0 3.292-.019l109.789-46.991V47.817a3.896 3.896 0 0 0-1.137-2.748 3.879 3.879 0 0 0-2.742-1.14H201.658a3.879 3.879 0 0 0-2.742 1.14 3.896 3.896 0 0 0-1.137 2.748v147.642Z" fill="#F7F7F7"/><path d="M505.113 160.961h-.141l-80.622 34.657-110.307 47.419a3.54 3.54 0 0 1-2.725.014l-113.805-47.532-82.603-34.502-.126-.056h-.141a4.902 4.902 0 0 0-3.474 1.451 4.968 4.968 0 0 0-1.441 3.498v214.929a4.968 4.968 0 0 0 1.441 3.498 4.91 4.91 0 0 0 3.474 1.451h390.47a4.909 4.909 0 0 0 3.474-1.451 4.973 4.973 0 0 0 1.442-3.498V165.91a4.973 4.973 0 0 0-1.442-3.498 4.9 4.9 0 0 0-3.474-1.451Zm3.511 219.878c0 .937-.37 1.836-1.029 2.499a3.502 3.502 0 0 1-2.482 1.036h-390.47a3.502 3.502 0 0 1-2.482-1.036 3.55 3.55 0 0 1-1.029-2.499V165.91a3.557 3.557 0 0 1 .983-2.451 3.511 3.511 0 0 1 2.395-1.084l83.003 34.671 113.264 47.313c1.226.502 2.6.495 3.821-.021l109.752-47.186 80.903-34.777a3.514 3.514 0 0 1 2.39 1.087c.628.659.979 1.535.981 2.448v214.929Z" fill="#F7F7F7"/><path d="M293.895 97.35h-76.61c-1.476 0-2.891-.522-3.934-1.447-1.043-.925-1.629-2.18-1.629-3.487 0-1.308.586-2.562 1.629-3.488 1.043-.925 2.458-1.446 3.934-1.447h76.61c1.477.001 2.892.522 3.935 1.447 1.043.926 1.629 2.18 1.629 3.488 0 1.307-.586 2.562-1.629 3.487-1.043.925-2.458 1.446-3.935 1.448Zm-39.513-23.03h-37.066a5.655 5.655 0 0 1-3.956-1.605 5.43 5.43 0 0 1-1.638-3.878 5.43 5.43 0 0 1 1.638-3.877 5.655 5.655 0 0 1 3.956-1.606h37.066a5.65 5.65 0 0 1 3.956 1.606 5.426 5.426 0 0 1 1.639 3.877c0 1.454-.589 2.85-1.639 3.878a5.652 5.652 0 0 1-3.956 1.606Z" fill="#982622"/><path d="M368.37 154.381H249.194a5.772 5.772 0 0 1-4.007-1.609 5.388 5.388 0 0 1-1.66-3.874 5.39 5.39 0 0 1 1.66-3.875 5.776 5.776 0 0 1 4.007-1.609H368.37a5.776 5.776 0 0 1 4.007 1.609 5.39 5.39 0 0 1 1.66 3.875 5.388 5.388 0 0 1-1.66 3.874 5.772 5.772 0 0 1-4.007 1.609Zm-.008 26.322h-119.16c-1.505 0-2.949-.636-4.013-1.767-1.064-1.131-1.662-2.666-1.662-4.265 0-1.6.598-3.134 1.662-4.266 1.064-1.131 2.508-1.766 4.013-1.766h119.16c1.505 0 2.948.635 4.013 1.766 1.064 1.132 1.662 2.666 1.662 4.266 0 1.599-.598 3.134-1.662 4.265-1.065 1.131-2.508 1.767-4.013 1.767Z" fill="#CCC"/><path d="M502.901 216.892c29.376 0 53.19-24.06 53.19-53.739s-23.814-53.739-53.19-53.739c-29.377 0-53.191 24.06-53.191 53.739s23.814 53.739 53.191 53.739Z" fill="#982622"/><path d="m498.428 186.187-15.817-21.019 9.199-7.393 7.489 9.952 25.3-27.602 8.461 8.284-34.632 37.778Z" fill="#fff"/><path d="m75.243 80.412 21.555 52.195c.282.688.281 1.46-.003 2.146a2.803 2.803 0 0 1-1.514 1.517l-56.032 23.14a2.802 2.802 0 0 1-2.144-.006 2.817 2.817 0 0 1-1.516-1.519L14.033 105.69a2.811 2.811 0 0 1 .002-2.147 2.799 2.799 0 0 1 1.515-1.516l56.033-23.14a2.8 2.8 0 0 1 2.143.004 2.812 2.812 0 0 1 1.517 1.521Z" fill="#982622"/><path d="m70.929 146.329-7.807 3.224a2.715 2.715 0 0 1-2.089.017 2.775 2.775 0 0 1-1.5-1.474L37.316 94.301a2.77 2.77 0 0 1 .024-2.104 2.715 2.715 0 0 1 1.492-1.462l7.806-3.224a2.715 2.715 0 0 1 2.089-.016 2.77 2.77 0 0 1 1.5 1.474l22.217 53.795a2.77 2.77 0 0 1-.023 2.103 2.717 2.717 0 0 1-1.492 1.462ZM35.268 74.836c5.567 1.808 7.62 10.464 7.62 10.464s-6.973 5.726-12.54 3.918c-5.567-1.808-7.62-10.465-7.62-10.465s6.973-5.725 12.54-3.917Z" fill="#F7F7F7"/><path d="M52.856 79.15c-1.912 5.616-10.838 7.812-10.838 7.812s-5.826-6.909-3.914-12.525c1.912-5.616 10.838-7.813 10.838-7.813s5.826 6.91 3.914 12.526Z" fill="#F7F7F7"/><path opacity=".2" d="m75.251 80.434 3.66 8.86-61.318 25.017-3.55-8.599a2.849 2.849 0 0 1-.006-2.163 2.787 2.787 0 0 1 1.513-1.522l56.033-23.14a2.787 2.787 0 0 1 2.146.01c.688.29 1.236.843 1.522 1.537Z" fill="#000"/><path d="M84.1 83.13a2.8 2.8 0 0 1-.597 1.15c-.286.33-.643.588-1.046.752L13.92 112.994a2.779 2.779 0 0 1-2.157-.028 2.87 2.87 0 0 1-.915-.631 2.928 2.928 0 0 1-.613-.935l-3.187-7.809a2.898 2.898 0 0 1-.005-2.188 2.78 2.78 0 0 1 1.521-1.528h.001l68.539-27.962a2.795 2.795 0 0 1 2.156.027 2.883 2.883 0 0 1 1.528 1.567l3.188 7.809c.236.577.28 1.215.126 1.815Z" fill="#982622"/><path d="m35.075 88.42 5.614 13.75 13.14-5.365-5.614-13.75-13.14 5.364Z" fill="#F7F7F7"/><path d="m593.519 44.077-17.445 53.708a2.805 2.805 0 0 1-3.531 1.805l-57.657-18.728a2.806 2.806 0 0 1-1.796-3.535l17.445-53.708a2.815 2.815 0 0 1 1.394-1.634 2.8 2.8 0 0 1 2.137-.17l57.657 18.727a2.8 2.8 0 0 1 1.796 3.535Z" fill="#982622"/><path d="m547.485 91.45-8.033-2.609a2.716 2.716 0 0 1-1.601-1.342 2.768 2.768 0 0 1-.186-2.095l17.98-55.355a2.768 2.768 0 0 1 1.382-1.586 2.716 2.716 0 0 1 2.084-.145l8.033 2.61a2.71 2.71 0 0 1 1.6 1.341c.335.645.402 1.398.187 2.095L550.95 89.72a2.768 2.768 0 0 1-1.382 1.585 2.713 2.713 0 0 1-2.083.146Zm19.225-77.544c3.065 4.986-.987 12.907-.987 12.907s-9.021-.165-12.085-5.151c-3.065-4.987.987-12.907.987-12.907s9.02.164 12.085 5.15Z" fill="#F7F7F7"/><path d="M577.299 28.595c-5.098 3.035-13.316-1.082-13.316-1.082s.047-9.038 5.145-12.072c5.097-3.035 13.316 1.083 13.316 1.083s-.047 9.037-5.145 12.071Z" fill="#F7F7F7"/><path opacity=".2" d="m593.512 44.1-2.961 9.117-62.897-20.728 2.874-8.848a2.848 2.848 0 0 1 1.399-1.65 2.787 2.787 0 0 1 2.139-.177l57.657 18.728a2.79 2.79 0 0 1 1.627 1.4c.335.668.394 1.443.162 2.157Z" fill="#000"/><path d="M598.498 51.89a2.82 2.82 0 0 1-1.201.487c-.431.066-.87.03-1.282-.106l-70.304-23.17a2.767 2.767 0 0 1-1.624-1.418 2.876 2.876 0 0 1-.287-1.075 2.92 2.92 0 0 1 .14-1.109l2.639-8.011a2.899 2.899 0 0 1 1.415-1.668 2.78 2.78 0 0 1 2.149-.177h.001l70.303 23.17c.351.115.674.3.953.543.279.244.507.541.671.876a2.901 2.901 0 0 1 .147 2.184l-2.639 8.01a2.886 2.886 0 0 1-1.081 1.464Z" fill="#982622"/><path d="m557.753 24.119-4.644 14.107 13.48 4.439 4.645-14.108-13.481-4.438Z" fill="#F7F7F7"/></svg>